<svg xmlns="http://www.w3.org/2000/svg" style="display: none;"><symbol id="humidity" viewBox="0 0 511.448 511.448"><title>humidity</title><path style="fill:#2196F3;" d="M344.556,112.216C318.38,78.84,291.34,44.344,269.516,7.32c-5.76-9.76-21.824-9.76-27.552,0 c-21.856,37.024-48.896,71.52-75.072,104.896c-53.056,67.68-103.168,131.616-103.168,207.232c0,105.888,86.112,192,192,192 s192-86.112,192-192C447.724,243.832,397.612,179.896,344.556,112.216z"/><g> <path style="fill:#FAFAFA;" d="M207.724,287.448c-26.464,0-48-21.536-48-48s21.536-48,48-48s48,21.536,48,48 S234.188,287.448,207.724,287.448z M207.724,223.448c-8.832,0-16,7.168-16,16s7.168,16,16,16s16-7.168,16-16 S216.556,223.448,207.724,223.448z"/> <path style="fill:#FAFAFA;" d="M303.724,447.448c-26.464,0-48-21.536-48-48s21.536-48,48-48s48,21.536,48,48 S330.188,447.448,303.724,447.448z M303.724,383.448c-8.8,0-16,7.2-16,16s7.2,16,16,16s16-7.2,16-16 S312.524,383.448,303.724,383.448z"/> <path style="fill:#FAFAFA;" d="M175.724,415.448c-4.096,0-8.192-1.568-11.328-4.672c-6.24-6.24-6.24-16.384,0-22.624l160-160 c6.24-6.24,16.384-6.24,22.624,0s6.24,16.384,0,22.624l-160,160C183.916,413.88,179.82,415.448,175.724,415.448z"/> </g></symbol><symbol id="sunset" viewBox="0 0 512 512"><title>sunset</title><path style="fill:#FFC107;" d="M416,288c0,43.52-17.28,83.2-45.44,112H320c-4.16,0-8.32,1.6-11.2,4.8l-42.88,42.56 C262.72,448,259.2,448,256,448s-6.72,0-9.92-0.64L203.2,404.8c-2.88-3.2-7.04-4.8-11.2-4.8h-50.56C113.28,371.2,96,331.52,96,288 c0-88.32,71.68-160,160-160S416,199.68,416,288z"/><path style="fill:#607D8B;" d="M496,384H320c-4.256,0-8.32,1.696-11.328,4.672L256,441.376l-52.672-52.672 C200.32,385.696,196.256,384,192,384H16c-8.832,0-16,7.168-16,16s7.168,16,16,16h169.376l59.328,59.328 c3.104,3.104,7.2,4.672,11.296,4.672c4.096,0,8.192-1.568,11.328-4.672L326.624,416H496c8.832,0,16-7.168,16-16S504.832,384,496,384 z"/><g> <path style="fill:#FFD54F;" d="M256,96c8.832,0,16-7.168,16-16V48c0-8.832-7.168-16-16-16s-16,7.168-16,16v32 C240,88.832,247.168,96,256,96z"/> <path style="fill:#FFD54F;" d="M16,304h32c8.832,0,16-7.168,16-16s-7.168-16-16-16H16c-8.832,0-16,7.168-16,16S7.168,304,16,304z"/> <path style="fill:#FFD54F;" d="M464,304h32c8.832,0,16-7.168,16-16s-7.168-16-16-16h-32c-8.832,0-16,7.168-16,16 S455.168,304,464,304z"/> <path style="fill:#FFD54F;" d="M97.6,152.224c3.136,3.136,7.232,4.672,11.328,4.672s8.192-1.536,11.296-4.672 c6.24-6.24,6.24-16.384,0-22.624L97.6,107.008c-6.24-6.24-16.384-6.24-22.624,0s-6.24,16.384,0,22.624L97.6,152.224z"/> <path style="fill:#FFD54F;" d="M403.104,156.928c4.096,0,8.192-1.568,11.328-4.672l22.592-22.624c6.24-6.24,6.24-16.384,0-22.624 s-16.384-6.24-22.624,0L391.776,129.6c-6.24,6.24-6.24,16.384,0,22.624C394.912,155.36,399.008,156.928,403.104,156.928z"/> </g></symbol><symbol id="sunrise" viewBox="0 0 512 512"><title>sunrise</title><path style="fill:#FFC107;" d="M416,320c0,43.52-17.28,83.2-45.44,112h-43.84l-59.52-59.2c-6.08-6.4-16.32-6.4-22.4,0L185.28,432 h-43.84C113.28,403.2,96,363.52,96,320c0-88.32,71.68-160,160-160S416,231.68,416,320z"/><path style="fill:#607D8B;" d="M496,448H320c-4.256,0-8.32-1.696-11.328-4.672L256,390.624l-52.672,52.672 C200.32,446.304,196.256,448,192,448H16c-8.832,0-16-7.168-16-16s7.168-16,16-16h169.376l59.328-59.328 c6.24-6.24,16.384-6.24,22.624,0L326.624,416H496c8.832,0,16,7.168,16,16S504.832,448,496,448z"/><g> <path style="fill:#FFD54F;" d="M256,128c-8.832,0-16-7.168-16-16V80c0-8.832,7.168-16,16-16s16,7.168,16,16v32 C272,120.832,264.832,128,256,128z"/> <path style="fill:#FFD54F;" d="M48,336H16c-8.832,0-16-7.168-16-16s7.168-16,16-16h32c8.832,0,16,7.168,16,16S56.832,336,48,336z"/> <path style="fill:#FFD54F;" d="M496,336h-32c-8.832,0-16-7.168-16-16s7.168-16,16-16h32c8.832,0,16,7.168,16,16 S504.832,336,496,336z"/> <path style="fill:#FFD54F;" d="M108.928,188.928c-4.096,0-8.192-1.568-11.328-4.672l-22.624-22.624 c-6.24-6.24-6.24-16.384,0-22.624c6.24-6.24,16.384-6.24,22.624,0l22.624,22.592c6.24,6.24,6.24,16.384,0,22.624 C117.12,187.36,113.024,188.928,108.928,188.928z"/> <path style="fill:#FFD54F;" d="M403.104,188.928c-4.096,0-8.192-1.568-11.328-4.672c-6.24-6.24-6.24-16.384,0-22.624l22.592-22.624 c6.24-6.24,16.384-6.24,22.624,0c6.24,6.24,6.24,16.384,0,22.624L414.4,184.224C411.296,187.36,407.2,188.928,403.104,188.928z"/> </g></symbol><symbol id="wind" viewBox="0 0 448 448"><title>wind</title><path style="fill:#B7CEEB;" d="M384,112c-35.297,0-64,28.711-64,64c0,8.836,7.156,16,16,16s16-7.164,16-16 c0-17.649,14.359-32,32-32s32,14.351,32,32s-14.359,32-32,32H17.266c-8.844,0-16,7.164-16,16c0,8.836,7.156,16,16,16H384 c35.297,0,64-28.711,64-64S419.297,112,384,112z"/><path style="fill:#B7CEEB;" d="M16,176h208c35.297,0,64-28.711,64-64s-28.703-64-64-64s-64,28.711-64,64c0,8.836,7.156,16,16,16 s16-7.164,16-16c0-17.649,14.359-32,32-32s32,14.351,32,32s-14.359,32-32,32H16c-8.844,0-16,7.164-16,16S7.156,176,16,176z"/><path style="fill:#B7CEEB;" d="M224,272H16c-8.844,0-16,7.164-16,16s7.156,16,16,16h208c17.641,0,32,14.351,32,32s-14.359,32-32,32 s-32-14.351-32-32c0-8.836-7.156-16-16-16s-16,7.164-16,16c0,35.289,28.703,64,64,64s64-28.711,64-64S259.297,272,224,272z"/></symbol><symbol id="barometer" viewBox="0 0 512 512"><title>barometer</title><g><path d="m256 90c-24.813 0-45-20.187-45-45s20.187-45 45-45 45 20.187 45 45-20.187 45-45 45zm0-60c-8.271 0-15 6.729-15 15s6.729 15 15 15 15-6.729 15-15-6.729-15-15-15z" fill="#00347b"/></g><path d="m256 0v30c8.271 0 15 6.729 15 15s-6.729 15-15 15v30c24.813 0 45-20.187 45-45s-20.187-45-45-45z" fill="#001737"/><ellipse clip-rule="evenodd" cx="256" cy="284.802" fill="#fff4f4" fill-rule="evenodd" rx="212.038" ry="212.038" transform="matrix(.707 -.707 .707 .707 -126.405 264.436)"/><path clip-rule="evenodd" d="m256 72.765v424.075h.001c116.786 0 212.038-95.251 212.038-212.038-.001-116.786-95.253-212.037-212.039-212.037z" fill="#f6efea" fill-rule="evenodd"/><path d="m256 512c-125.277 0-227.198-101.92-227.198-227.197s101.921-227.198 227.198-227.198 227.198 101.921 227.198 227.198-101.921 227.197-227.198 227.197zm0-424.075c-108.559 0-196.878 88.319-196.878 196.878s88.319 196.877 196.878 196.877 196.878-88.319 196.878-196.878-88.319-196.877-196.878-196.877z" fill="#00429d"/><path d="m373.313 171.037c-.21-.238-.413-.481-.641-.709-.241-.241-.496-.456-.749-.677-29.852-29.443-70.811-47.651-115.923-47.651-45.305 0-86.404 18.336-116.279 47.972-.13.121-.267.229-.393.356-.106.106-.195.221-.297.328-29.788 29.896-48.229 71.105-48.229 116.542 0 8.284 6.716 15 15 15 .792 0 17.198-.198 17.198-.198 8.284 0 15-6.716 15-15s-6.716-15-15-15h-1.339c2.925-26.026 13.266-49.837 28.857-69.269l.83.83c2.929 2.929 6.768 4.394 10.606 4.394s7.678-1.464 10.606-4.394c5.858-5.858 5.858-15.355 0-21.213l-.808-.808c19.441-15.533 43.242-25.819 69.247-28.703v1.163c0 8.284 6.716 15 15 15s15-6.716 15-15v-1.162c25.995 2.886 49.794 13.177 69.236 28.713l-.797.797c-5.858 5.858-5.858 15.355 0 21.213 2.929 2.929 6.768 4.394 10.606 4.394s7.678-1.464 10.606-4.394l.819-.819c15.594 19.431 25.94 43.24 28.867 69.258h-1.336c-8.284 0-15 6.716-15 15s6.716 15 15 15c0 0 17.211-.002 17.218-.002 8.284-.011 14.991-6.736 14.98-15.02-.061-45.153-18.355-86.121-47.885-115.941z" fill="#7dd5f4"/><g><path d="m246.948 311.25c-3.839 0-7.678-1.464-10.606-4.394-5.858-5.858-5.858-15.355 0-21.213l66.467-66.468c5.857-5.858 15.355-5.858 21.213 0s5.858 15.355 0 21.213l-66.467 66.468c-2.93 2.93-6.768 4.394-10.607 4.394z" fill="#fdbf00"/></g><path d="m324.021 219.176c-5.857-5.858-15.355-5.858-21.213 0l-46.808 46.81v42.207c.538-.409 1.063-.844 1.555-1.335l66.467-66.468c5.857-5.859 5.857-15.356-.001-21.214z" fill="#ff8856"/><g><path d="m342 425h-172c-8.284 0-15-6.716-15-15s6.716-15 15-15h172c8.284 0 15 6.716 15 15s-6.716 15-15 15z" fill="#fdbf00"/></g><g><path d="m250.748 339.152c-.293 0-.586-.008-.883-.026-8.271-.48-14.585-7.574-14.105-15.844.248-4.269-1.344-8.452-4.368-11.476-3.071-3.071-7.317-4.662-11.65-4.357-8.271.581-15.431-5.655-16.008-13.919s5.655-15.431 13.919-16.008c13-.912 25.738 3.856 34.952 13.071 9.072 9.071 13.848 21.62 13.104 34.427-.463 7.975-7.076 14.131-14.961 14.132z" fill="#fdbf00"/></g><path d="m373.313 171.037c-.21-.238-.413-.481-.641-.709-.241-.241-.496-.456-.749-.677-29.852-29.443-70.811-47.651-115.923-47.651v47c8.284 0 15-6.716 15-15v-1.162c25.995 2.886 49.794 13.177 69.236 28.713l-.797.797c-5.858 5.858-5.858 15.355 0 21.213 2.929 2.929 6.768 4.394 10.606 4.394s7.678-1.464 10.606-4.394l.819-.819c15.594 19.431 25.94 43.24 28.867 69.258h-1.337c-8.284 0-15 6.716-15 15s6.716 15 15 15c0 0 17.211-.002 17.218-.002 8.284-.011 14.991-6.736 14.98-15.02-.061-45.153-18.355-86.121-47.885-115.941z" fill="#4793ff"/><path d="m256 57.605v30.32c108.559 0 196.878 88.319 196.878 196.878s-88.319 196.877-196.878 196.877v30.32c125.277 0 227.198-101.92 227.198-227.197s-101.921-227.198-227.198-227.198z" fill="#00347b"/><path d="m342 395h-86v30h86c8.284 0 15-6.716 15-15s-6.716-15-15-15z" fill="#ff8856"/></symbol></svg>